<?xml version="1.0" encoding="UTF-8"?>
<svg width="441px" height="353px" viewBox="0 0 441 353" version="1.1" xmlns="http://www.w3.org/2000/svg" xmlns:xlink="http://www.w3.org/1999/xlink">
    <!-- Generator: Sketch 53.1 (72631) - https://sketchapp.com -->
    <title>Logo</title>
    <desc>Created with Sketch.</desc>
    <defs>
        <linearGradient x1="0%" y1="17.9637085%" x2="100%" y2="82.0362915%" id="linearGradient-1">
            <stop stop-color="#1A2980" offset="0%"></stop>
            <stop stop-color="#26D0CE" offset="100%"></stop>
        </linearGradient>
    </defs>
    <g id="Logo" stroke="none" stroke-width="1" fill="none" fill-rule="evenodd">
        <path d="M20.3159367,241.055997 C21.6850078,242.234668 22.3206385,244.10087 22.2228477,246.654657 C22.1250569,249.208445 21.5872156,252.056858 20.6093076,255.199981 C19.6313997,258.343105 18.5068224,261.633513 17.2355421,265.071304 C15.9642618,268.509095 15.0352632,271.603061 14.4485184,274.353294 C13.6661921,277.889308 13.1772454,282.161927 12.9816638,287.17128 C12.7860822,292.180633 12.9327662,296.944358 13.4217202,301.462598 C13.9106742,305.980838 14.6929888,309.762352 15.7686875,312.807253 C16.8443863,315.852153 18.2623315,317.27636 20.0225658,317.079915 C23.1518712,317.27636 26.4278137,316.687033 29.8504915,315.311917 C33.2731693,313.9368 36.0601651,311.579493 38.2115626,308.239924 C38.9938889,307.061253 39.6295196,306.226373 40.1184735,305.73526 C40.6074275,305.244147 41.0963741,304.65482 41.5853281,303.967262 C42.0742821,303.279704 42.6121234,302.444824 43.1988681,301.462598 C43.7856129,300.480372 44.5679275,298.908834 45.5458355,296.747937 C48.0883961,293.408368 49.9463933,292.229714 51.1198829,293.21194 C52.2933724,294.194167 52.2933724,296.25681 51.1198829,299.399934 C50.1419749,301.560831 49.0173976,304.163691 47.7461173,307.208592 C46.474837,310.253493 43.9812092,314.427891 40.265159,319.731912 C39.0916694,321.303474 37.2825669,323.267896 34.837797,325.625239 C32.3930272,327.982581 30.388346,329.652341 28.8236933,330.634567 C23.1518272,334.563471 17.7245196,335.840346 12.5416075,334.465229 C7.35869537,333.090113 4.08275291,329.063046 2.71368179,322.383909 C1.14902909,315.704772 0.366714469,308.927513 0.366714469,302.051931 C0.366714469,295.176348 0.268925142,288.300869 0.073343554,281.425286 C-0.122238034,276.907047 0.0733406203,272.388874 0.660085385,267.870634 C1.24683015,263.352394 1.34461948,258.834222 0.953456301,254.315982 C0.757874712,250.583523 0.904558703,247.391336 1.39351267,244.739326 C1.88246664,242.087316 2.86035992,240.073782 4.32722183,238.698666 C5.79408374,237.323549 7.79876495,236.783333 10.3413256,237.078001 C12.8838862,237.372669 16.2087234,238.698654 20.3159367,241.055997 Z M20.9507496,207.580114 C22.5558645,208.74697 23.7596826,210.691702 24.56224,213.414367 C25.3647975,216.137032 25.063843,218.276237 23.6593674,219.832046 C22.0542525,221.58233 20.1983663,223.186734 18.0916529,224.645304 C15.9849396,226.103875 13.8280988,227.222096 11.6210659,228 C11.2197871,228 10.6680372,227.70829 9.96579939,227.124862 C9.26356162,226.541434 8.5111753,225.812159 7.70861785,224.937017 C6.9060604,224.061875 6.25399225,223.089509 5.75239385,222.01989 C5.25079544,220.950272 5,220.123761 5,219.540333 C5.40127873,217.012144 6.25398323,214.581229 7.55813908,212.247516 C8.86229494,209.913803 10.015954,207.482889 11.0191508,204.9547 C13.2261838,203.787843 15.1322291,203.690607 16.737344,204.662987 C18.3424589,205.635368 19.7469134,206.607733 20.9507496,207.580114 Z M63.9905577,272.999166 C63.9905577,274.177098 64.7233929,274.373417 66.1890852,273.588129 C67.6547775,272.802841 69.4135818,271.674006 71.465551,270.201591 C73.5175203,268.729176 75.66717,267.207703 77.9145649,265.637126 C80.1619598,264.06655 82.1650425,262.986795 83.9238733,262.397829 C85.0964271,262.005185 86.317819,261.514387 87.5880857,260.925421 C88.8583523,260.336455 90.1285999,259.894737 91.3988666,259.600254 C92.6691333,259.305771 93.8416695,259.35485 94.9165105,259.747494 C95.9913515,260.140139 96.821898,261.121734 97.408175,262.69231 C98.1898775,264.851853 98.0433105,266.962283 96.9684695,269.023665 C95.8936285,271.085046 94.8676592,272.900998 93.890531,274.471574 C92.3271259,277.220083 90.4217545,279.87039 88.1743597,282.422577 C85.9269648,284.974764 83.3376139,288.01771 80.4062293,291.551506 C83.3376139,293.907371 86.806367,295.919642 90.8125926,297.588379 C94.8188182,299.257116 98.5318497,300.729509 101.951798,302.005603 C105.371747,303.281696 108.156521,304.312371 110.306203,305.097659 C112.455885,305.882948 113.335287,306.471905 112.944436,306.864549 C109.817625,310.987312 106.593151,313.441301 103.270915,314.226589 C99.948679,315.011877 96.5776372,315.060957 93.1576886,314.37383 C89.7377399,313.686702 86.1712754,312.754187 82.4581883,311.576254 C78.7451011,310.398322 75.0320697,309.907524 71.3189825,310.103847 C69.9510031,314.422931 68.6318998,318.840111 67.3616331,323.355518 C66.0913665,327.870925 64.7722632,332.386264 63.4042837,336.901671 C62.6225812,339.061214 61.889746,341.269804 61.2057563,343.527507 C60.5217665,345.785211 59.4957973,347.797481 58.1278178,349.56438 C57.3461153,350.54599 56.1247234,351.429426 54.4636054,352.214714 C52.8024875,353.000002 51.2879615,353.196321 49.919982,352.803677 C48.7474282,352.411033 47.574892,351.478517 46.4023381,350.006102 C45.2297843,348.533687 44.6435162,347.208533 44.6435162,346.030601 C44.2526649,343.08577 44.3015206,340.140984 44.7900847,337.196153 C45.2786487,334.251322 45.5229271,331.306536 45.5229271,328.361705 C45.7183528,323.257332 45.9137755,317.514998 46.1092011,311.134532 C46.3046268,304.754066 46.5000495,298.177376 46.6954751,291.404265 C46.8909007,284.631155 47.0863235,277.809066 47.2817491,270.937795 C47.4771747,264.066523 47.6725974,257.587993 47.8680231,251.50201 C47.2817462,251.305688 46.6466224,251.502007 45.9626326,252.090973 C45.2786429,252.679939 44.5458077,253.416136 43.7641052,254.299585 C42.9824026,255.183034 42.2495675,256.11555 41.5655777,257.09716 C40.881588,258.07877 40.3441755,258.864047 39.9533243,259.453013 C38.1944935,262.201521 35.849421,264.999069 32.9180364,267.845738 C29.9866518,270.692408 28.0324247,272.115721 27.0552966,272.115721 C25.8827427,271.723077 25.68732,270.594242 26.4690226,268.729183 C27.2507251,266.864124 28.032416,265.244491 28.8141185,263.870237 C29.9866723,261.121728 31.3546313,258.61866 32.9180364,256.360956 C34.4814415,254.103253 36.2402459,251.600184 38.1945023,248.851676 C43.0801433,241.980404 46.6466077,233.096965 48.8940026,222.201092 C51.1413974,211.305218 52.8513461,200.06595 54.0238999,188.482949 C56.9552845,162.764762 60.5706046,137.439598 64.8699687,112.506699 C69.1693328,87.5737997 75.4228594,62.8375934 83.6307363,38.2973381 C84.9987157,34.3708973 86.6598088,30.4445153 88.6140652,26.5180745 C90.5683216,22.5916336 92.62026,18.8615708 94.769942,15.327774 C99.0693061,8.45650254 103.808307,3.9411633 108.987086,1.78162084 C114.165866,-0.377921624 119.88198,-0.574240721 126.1356,1.19265766 C131.607518,2.763234 135.564828,5.85525978 138.007649,10.4688278 C140.450469,15.0823958 141.769572,21.5118462 141.964998,29.757372 C142.355849,52.5307289 139.473364,74.3221487 133.317457,95.1322852 C127.161549,115.942422 119.100362,136.261448 109.133655,156.089974 C102.880034,168.458263 96.3822292,180.630047 89.6400446,192.605692 C82.8978601,204.581336 76.0092096,216.458642 68.9738866,228.237964 C65.0653738,235.109236 62.6714456,242.127643 61.7920303,249.293398 C60.9126149,256.459153 61.64545,264.360996 63.9905577,272.999166 Z M69,201 C78.977061,185.313406 88.3670952,169.529007 97.1703843,153.64633 C105.973673,137.763653 112.918386,120.900817 118.004731,103.057316 C121.330418,91.6845348 123.873552,80.2138847 125.63421,68.6450213 C127.394868,57.0761579 129.057686,45.4094283 130.622716,33.6444825 C131.209602,30.3110812 131.111789,26.8306703 130.329274,23.2031453 C129.54676,19.5756203 126.905812,17.0756068 122.406354,15.7030298 C117.515637,14.3304528 113.65203,14.9677112 110.815414,17.614824 C107.978799,20.2619368 105.680197,23.3501887 103.919539,26.8796725 C101.180738,32.566063 98.6376035,38.2523681 96.2900598,43.9387586 C93.942516,49.6251491 91.9862589,55.5075338 90.4212297,61.5860891 C83.9654844,84.331651 78.781403,107.223931 74.8688301,130.263617 C70.9562571,153.303303 69,176.881861 69,201 Z M180.399578,255.162001 C172.177475,253.985209 164.689601,254.916823 157.935731,257.956869 C151.181861,260.996915 145.700541,265.164657 141.491607,270.460221 C137.282674,275.755785 134.688835,281.835786 133.710013,288.700406 C132.731191,295.565026 134.003641,302.331479 137.527399,308.999967 C139.680807,310.569023 141.785242,310.372894 143.840768,308.411574 C145.896293,306.450254 147.951788,303.55735 150.007314,299.732776 C152.06284,295.908202 154.069394,291.642395 156.027038,286.935227 C157.984681,282.228059 159.893355,277.864187 161.753117,273.843481 C163.612878,269.822775 165.423671,266.586646 167.18555,264.134996 C168.947429,261.683346 170.709282,260.849797 172.471161,261.634325 C173.841512,262.222721 175.065021,263.399496 176.141725,265.164684 C177.218429,266.929872 178.148295,268.940195 178.931353,271.195713 C179.71441,273.451231 180.448515,275.706715 181.133691,277.962233 C181.818866,280.217751 182.455091,282.228074 183.042384,283.993262 C185.000027,290.269486 187.153403,295.12368 189.502575,298.55599 C191.851747,301.9883 194.151944,304.390881 196.403234,305.763805 C198.654524,307.136729 198.654524,307.823181 202.716603,307.528985 C206.731489,304.908124 207.269124,298.564536 207.176379,293.955352 C207.116459,291.137657 207.004467,288.894334 207.004467,288.700406 C212.09738,286.702233 238.186545,292.389205 235.90122,295.205259 C233.615896,298.021313 231.673703,302.208089 223.91294,309.294164 C219.438643,314.263005 211.551601,319.603372 207.004467,321.650418 C202.716603,322.631078 198.214058,322.631078 195.669121,321.650418 C193.124185,320.669758 190.628227,319.149758 188.181172,317.090372 C185.734118,315.030986 183.091339,312.432276 180.252756,309.294164 C177.414172,306.156052 174.233049,302.527664 170.709291,298.408892 C167.772826,301.350872 165.521569,304.488937 163.955455,307.823181 C162.38934,311.157425 159.942322,314.099361 156.614328,316.649077 C152.307512,320.963981 147.609238,324.053014 142.519365,325.916268 C137.429492,327.779522 132.241814,327.240167 126.956177,324.298187 C121.866303,321.552339 119.027763,317.67879 118.44047,312.677424 C117.853177,307.676058 117.853177,302.723799 118.44047,297.820499 C119.419292,288.798427 121.670548,280.266813 125.194306,272.2254 C128.718065,264.183988 133.807861,257.025278 140.46385,250.749053 C143.596079,248.003205 147.707069,245.06127 152.796942,241.923157 C157.886815,238.785045 162.585089,236.823755 166.891905,236.039227 C169.045313,235.843095 171.590212,236.38245 174.526677,237.657308 C177.463142,238.932166 179.91016,240.599263 181.867803,242.658649 C183.825447,244.718035 184.853194,246.924487 184.951077,249.278071 C185.048959,251.631655 183.531808,253.592945 180.399578,255.162001 Z M227.096382,279.499137 C228.860483,274.193864 230.575555,268.937792 232.24165,263.730765 C233.907745,258.523737 235.916829,253.36591 238.268964,248.257128 C239.24902,246.292212 240.572075,244.081715 242.23817,241.625569 C243.904265,239.169424 246.109358,238.432592 248.853515,239.41505 C250.421604,239.41505 251.891666,240.446615 253.263744,242.509777 C254.635823,244.572939 255.811872,246.488704 256.791928,248.257128 C258.360018,251.400994 259.781077,254.741301 261.05515,258.27815 C262.329223,261.814999 263.946291,266.039505 265.906403,270.951795 C269.042582,266.039505 271.786697,261.569388 274.138831,257.54131 C276.490965,253.513232 279.137077,249.82907 282.077245,246.488712 C284.037356,244.327305 286.487459,242.313296 289.427627,240.446626 C292.367795,238.579955 295.209915,237.54839 297.954071,237.351898 C299.914183,237.351898 301.482249,237.793998 302.658316,238.67821 C303.834383,239.562422 304.765422,240.692232 305.451462,242.067673 C306.137501,243.443115 306.627521,245.015024 306.921538,246.783448 C307.215555,248.551873 307.558569,250.222026 307.950592,251.793959 C308.734636,256.116775 309.518669,260.341281 310.302714,264.467604 L312.654837,276.846514 C313.438881,281.365821 314.516927,286.032426 315.889005,290.846471 C317.261083,295.660515 318.878151,300.179754 320.740258,304.404324 C322.602364,308.628893 324.758455,312.460422 327.208594,315.899025 C329.658734,319.337629 332.255843,321.941103 335,323.709528 C331.66781,325.477952 327.551637,325.42883 322.651357,323.56216 C317.751077,321.69549 313.928917,318.600793 311.18476,314.277978 C309.812682,311.723587 308.636632,309.463967 307.656576,307.499051 C306.67652,305.534135 305.843485,303.471004 305.157446,301.309597 C304.471407,299.148189 303.736376,296.593836 302.952331,293.646462 C302.168287,290.699088 301.188245,286.965804 300.012178,282.446497 C299.032122,279.302631 298.150085,276.011446 297.366041,272.572843 C296.581996,269.13424 295.601955,264.762367 294.425887,259.457094 C293.837854,259.06411 292.955817,259.555332 291.77975,260.930773 C290.603683,262.306215 289.427633,264.02549 288.251566,266.088652 C287.075499,268.151814 285.899449,270.313189 284.723382,272.572843 C283.547315,274.832496 282.567274,276.650016 281.783229,278.025458 C280.21514,280.186865 278.79408,282.397363 277.520007,284.657016 C276.245935,286.91667 274.726871,289.028923 272.96277,290.993839 C268.454513,295.513146 264.142331,297.379788 260.026096,296.593822 C255.909862,295.807855 252.479717,292.565792 249.735561,286.867536 C249.147527,285.492094 248.657506,284.018429 248.265484,282.446497 C247.873462,280.874564 247.383441,279.007922 246.795408,276.846514 C244.247262,281.169329 242.042169,285.148225 240.180063,288.783319 C238.317957,292.418414 236.01486,295.611355 233.270703,298.362237 C231.702614,300.327153 229.399517,302.046429 226.361344,303.520116 C223.32317,304.993803 220.726061,305.534147 218.569938,305.141164 C216.413815,304.551689 214.257724,303.471001 212.101601,301.899068 C209.945478,300.327136 208.377412,297.281561 207.397356,292.762254 C207.201345,292.565763 207.103341,291.976297 207.103341,290.993839 C206.711319,280.972767 206.319302,271.148334 205.92728,261.520245 C205.535257,251.892156 205.241245,242.067723 205.045234,232.046651 C204.849223,229.295769 205.290241,226.888783 206.368303,224.825621 C207.446364,222.762459 209.847465,221.829138 213.571678,222.02563 C214.355722,222.02563 215.580774,222.222118 217.246869,222.615102 C218.912964,223.008085 220.579034,223.597551 222.245129,224.383517 C223.911224,225.169484 225.381286,226.00456 226.655359,226.888773 C227.929432,227.772985 228.566458,228.608062 228.566458,229.394028 C229.742526,232.144911 229.938534,234.355408 229.154489,236.025587 C228.370444,237.695765 227.390403,240.053629 226.214336,243.099249 C225.038269,246.144869 223.960224,250.320253 222.980168,255.625526 C222.000112,260.9308 221.902108,268.593858 222.686152,278.614929 C223.078175,281.955287 223.715201,283.330707 224.597252,282.741233 C225.479302,282.151758 226.312337,281.07107 227.096382,279.499137 Z M378.104218,287.207502 C375.938782,291.90909 374.019446,296.169841 372.346154,299.989882 C370.672862,303.809922 368.753526,307.385035 366.588089,310.715327 C364.225795,314.241518 361.568253,316.837148 358.615385,318.502294 C355.662516,320.16744 352.660478,321 349.609181,321 C346.557884,321 343.555846,320.069491 340.602978,318.208446 C337.650109,316.3474 335.090995,313.653822 332.925558,310.127631 C329.578974,304.446545 327.41357,298.373751 326.42928,291.909067 C325.444991,283.093588 324.657571,274.327216 324.066998,265.609688 C323.476424,256.892159 322.787432,248.125787 322,239.310309 L322,234.755668 C322,233.090522 322.196855,231.474375 322.590571,229.907179 C322.984287,228.339983 323.624065,226.919732 324.509926,225.646385 C325.395786,224.373039 326.626129,223.44253 328.200993,222.854831 C330.366429,222.071233 332.334979,221.826362 334.1067,222.120212 C335.878421,222.414061 337.45326,223.099699 338.831266,224.177146 C340.209271,225.254594 341.242759,226.527922 341.931762,227.997168 C342.620764,229.466414 343.063688,230.788716 343.260546,231.964113 C343.85112,235.882104 343.555837,240.68157 342.37469,246.362656 C341.193542,252.043742 340.50455,258.998071 340.307692,267.225851 C340.307692,270.947942 340.356906,274.278183 340.455335,277.216676 C340.553764,280.155169 340.89826,282.995669 341.488834,285.738263 C342.079407,288.480856 343.063682,291.321356 344.441687,294.259849 C345.819693,297.198342 347.788242,300.430636 350.347395,303.956827 C351.528542,305.524023 353.004954,304.789411 354.776675,301.752968 C356.548396,298.716526 358.172449,294.651672 359.648883,289.558284 C361.125318,284.464897 362.404875,278.930818 363.487593,272.955883 C364.570311,266.980948 365.111663,261.936611 365.111663,257.822721 C365.30852,256.647324 365.406948,254.982203 365.406948,252.827308 C365.406948,250.672413 365.30852,248.811396 365.111663,247.2442 C364.521089,242.738511 364.619516,239.800062 365.406948,238.428765 C366.194379,237.057469 368.458211,236.077986 372.198511,235.490287 C376.135669,234.902589 378.891638,235.637201 380.466501,237.694146 C382.041364,239.751091 383.124067,242.444669 383.71464,245.77496 C384.502072,249.692951 385.289492,253.512934 386.076923,257.235025 C386.864355,260.957116 387.848629,264.777099 389.029777,268.69509 C390.210924,272.025382 391.244412,274.914856 392.130273,277.3636 C393.016133,279.812344 394.148049,281.820284 395.526055,283.38748 C396.90406,284.954676 398.577327,285.934159 400.545906,286.325958 C402.514485,286.717757 405.172026,286.423913 408.51861,285.444415 C411.471479,284.464917 413.735311,283.632357 415.310174,282.946709 C416.885037,282.26106 419.050441,281.232603 421.806452,279.861307 C423.381315,279.077708 425.30065,277.951303 427.564516,276.482057 C429.828382,275.01281 431.944572,273.788457 433.913151,272.808959 C435.88173,271.829461 437.554997,271.241772 438.933002,271.045872 C440.311008,270.849973 441,271.437662 441,272.808959 C438.834563,276.33515 436.373876,279.469496 433.617866,282.212089 C430.861856,284.954682 428.204314,287.256467 425.645161,289.117513 C423.086009,290.978558 420.674536,292.545731 418.41067,293.819078 C416.146804,295.092424 414.424324,296.022933 413.243176,296.610632 C406.550008,299.549125 400.398291,300.234763 394.787841,298.667566 C389.177391,297.10037 383.616239,293.280387 378.104218,287.207502 Z" id="ikamu" fill="url(#linearGradient-1)" fill-rule="nonzero"></path>
    </g>
</svg>